<svg xmlns="http://www.w3.org/2000/svg" enable-background="new 0 0 68 68" viewBox="0 0 68 68" id="drawing-tools">
  <rect width="4.476" height="4.476" x="31.512" y="3.831" fill="#8F9FFF" transform="rotate(45 33.75 6.07)"></rect>
  <rect width="4.476" height="4.476" x="3.241" y="31.425" fill="#8F9FFF" transform="rotate(45 5.479 33.664)"></rect>
  <rect width="4.476" height="4.476" x="31.512" y="59.696" fill="#8F9FFF" transform="rotate(45 33.75 61.935)"></rect>
  <rect width="4.476" height="4.476" x="59.355" y="31.674" fill="#8F9FFF" transform="rotate(45 61.593 33.912)"></rect>
  <g>
    <polygon fill="#FFF" points="14.995 23.304 10.979 19.288 9.962 13.761 9.778 12.737 9.144 9.333 12.556 9.959 13.588 10.151 19.114 11.153 23.13 15.169"></polygon>
    <rect width="16.093" height="64.579" x="25.719" y="1.659" fill="#FFF" transform="rotate(45 33.765 33.948)"></rect>
    <line x1="56.462" x2="58.412" y1="18.732" y2="20.681" fill="#FFF"></line>
    <line x1="49.714" x2="52.995" y1="22.816" y2="26.097" fill="#FFF"></line>
    <line x1="45.63" x2="47.579" y1="29.564" y2="31.513" fill="#FFF"></line>
    <line x1="38.882" x2="42.163" y1="33.648" y2="36.929" fill="#FFF"></line>
    <line x1="34.797" x2="36.747" y1="40.396" y2="42.346" fill="#FFF"></line>
    <line x1="28.049" x2="31.33" y1="44.481" y2="47.762" fill="#FFF"></line>
    <line x1="23.965" x2="25.914" y1="51.229" y2="53.178" fill="#FFF"></line>
    <line x1="17.217" x2="20.498" y1="55.313" y2="58.594" fill="#FFF"></line>
    <path fill="#FFF" d="M54.5497093,57.439579l-38.2846718-38.284668
				c-0.6756306-0.6756306-1.7635098-0.8401966-2.5388584-0.2818184c-0.987978,0.7115078-1.0700979,2.0981216-0.2463617,2.9218578
				l35.6446342,35.6446342c1.4981461,1.4981422,3.9271126,1.4981422,5.4252548,0L54.5497093,57.439579z"></path>
    <path fill="#8F9FFF" d="M57.2623405,54.7269516L18.905077,16.369688c-0.7490597-0.7490597-1.9635677-0.7490597-2.7126293,0
				c-0.7490606,0.7490616-0.7490606,1.9635696,0,2.7126312L54.5497093,57.439579L57.2623405,54.7269516z"></path>
    <path fill="#FFF" d="M57.2623405,49.301693L21.6902981,13.7296486
				c-0.6756306-0.6756306-1.7635098-0.8401957-2.5388584-0.2818165c-0.987978,0.7115068-1.0700989,2.0981197-0.2463627,2.9218559
				l38.3572617,38.3572617v-0.0000038C58.7604866,53.2288055,58.7604866,50.7998352,57.2623405,49.301693z"></path>
    <g>
      <path fill="#8F9FFF" d="M13.5877132,10.1505728c-0.1621351,0.869504-0.5747375,1.6947985-1.2453165,2.3653774
				c-0.6705341,0.6705341-1.5105801,1.0832262-2.380084,1.2452707l-0.1842632-1.0242186L9.1443501,9.332655l3.4117231,0.6263237
				L13.5877132,10.1505728z"></path>
      <path fill="#2A44E2" d="M2.4910655 28.0433655c.7734375-4.09375 2.328125-7.9462891 4.6201172-11.4521484.1513672-.2304688.0869141-.5410156-.1445313-.6914063-.2285156-.1513672-.5400391-.0878906-.6914063.1445313-2.3652344 3.6152344-3.96875 7.5908203-4.7666016 11.8134766-.0517578.2714844.1269531.5332031.3984375.5839844C2.181246 28.4932079 2.4406877 28.3127766 2.4910655 28.0433655zM62.4637222 19.098053c-.2470703.1240234-.3466797.4238281-.2236328.6708984 1.4179688 2.8339844 2.4003906 5.8476563 2.9179688 8.9550781.0469742.2807121.3148651.4576206.5751953.4111328.2724609-.0449219.4570313-.3027344.4111328-.5751953-.5341797-3.2070313-1.546875-6.3144531-3.0097656-9.2382813C63.0105972 19.0746155 62.7078629 18.9750061 62.4637222 19.098053zM66.0369644 35.8607483c-.2744141-.0253906-.515625.1865234-.5361328.4619141-.3632813 4.9101563-1.8222656 9.5488281-4.3359375 13.7890625-.1416016.2373047-.0625.5439453.1748047.6845703.2357445.140873.5438957.0636024.6845703-.1748047 2.59375-4.3730469 4.0986328-9.1591797 4.4746094-14.2246094C66.5193863 36.1214905 66.312355 35.8812561 66.0369644 35.8607483zM55.550148 41.0149841l2.1199951-2.1199951c.2000122-.2000122.2000122-.5200195 0-.710022-.1900024-.1999512-.5099487-.1999512-.7099609 0l-2.1199951 2.1199951c-.1900024.1900024-.1900024.5100098 0 .710022C55.0366631 41.1919098 55.3333626 41.2101974 55.550148 41.0149841zM10.7701797 38.4150085c-.2000122-.1900024-.5100098-.1900024-.710022 0-.1900024.2000122-.1900024.5100098 0 .7099609l2.1199951 2.1199951c.1939135.1939125.5046892.2053337.710022 0 .1900024-.1999512.1900024-.5099487 0-.7099609L10.7701797 38.4150085zM39.9901505 55.1549988l-2.1199951 2.1199951c-.1900024.2000122-.1900024.5100098 0 .710022.1997032.1795998.4960899.1923943.710022 0l2.1199951-2.1199951c.2000122-.2000122.2000122-.5200195 0-.710022C40.51017 54.9549866 40.1901627 54.9549866 39.9901505 55.1549988zM27.7401505 55.3849792c-.2000122-.1900024-.5100098-.1900024-.7099609 0-.1900024.2000122-.1900024.5100098 0 .710022l2.1199951 2.1199951c.1939735.1939735.5047131.205246.7099609 0 .2000122-.2000122.2000122-.5100098 0-.710022L27.7401505 55.3849792zM36.4601822 8.4850159c-.1900024.1999512-.1900024.5099487 0 .7099609l2.1199951 2.1199951c.1813469.1814594.5170135.1930656.7099609 0 .2000122-.1999512.2000122-.5100098 0-.7099609l-2.1199951-2.1199951C36.970192 8.2850037 36.6601944 8.2850037 36.4601822 8.4850159zM11.01017 27.8049622c-.2000122.2000122-.2000122.5200195 0 .710022.1631842.1813297.4820862.217926.7000122 0l2.1199951-2.1199951c.2000122-.1900024.2000122-.5100098 0-.710022-.1900024-.1900024-.5100098-.1900024-.7000122 0L11.01017 27.8049622zM30.1001968 8.7149963l-2.1200562 2.1199951c-.1999512.2000122-.1999512.5200195 0 .710022.1800213.1999159.520052.1999817.7000122 0l2.1199951-2.1199951c.2000122-.2000122.2000122-.5100098 0-.710022C30.6101456 8.5249939 30.2901382 8.5249939 30.1001968 8.7149963z"></path>
      <path fill="#2A44E2" d="M58.1697159,49.6123352c2.4295044-3.7747803,3.9839478-8.1494141,4.4385376-12.845459
					l0.0018921-0.0018921l2.5-2.5c0.2000122-0.2000122,0.2000122-0.5100098,0-0.710022l-2.4874878-2.4874878
					c-0.3850708-3.8192749-1.5105591-7.4191284-3.2346191-10.6603394l0.0021362-0.0021362l3.25-3.25
					c0.0899658-0.0900269,0.1499634-0.2200317,0.1499634-0.3500366c0-0.1299438-0.0599976-0.2599487-0.1499634-0.3499756
					L51.26017,5.0749817c-0.1900024-0.2000122-0.5100098-0.2000122-0.710022,0l-3.2299805,3.2299805L47.3171158,8.308075
					c-3.2521973-1.7255859-6.8643188-2.8582764-10.6983032-3.234436l-2.5186157-2.5186768
					c-0.1900024-0.1999512-0.5100098-0.1999512-0.7000122,0L30.800148,5.144989l-0.0045776,0.0045776
					C25.7099991,5.6659851,21.0043716,7.460907,17.0377579,10.26828l-0.0175781-0.0032959
					c-0.1006451-0.0183697-8.1965895-1.4960117-7.7800293-1.4199829C9.0701675,8.8149719,8.9101944,8.8650208,8.7901382,8.9750061
					c-0.1199951,0.1199951-0.1699829,0.289978-0.1399536,0.4500122c0.0190115,0.1025848,1.5341158,8.2777767,1.4400024,7.7699585
					l0.0036011,0.0193481c-2.6882939,3.789978-4.4916997,8.2436523-5.1034551,13.0704956l-0.0201416,0.0201416l-3.0100098,3
					c-0.0900269,0.1000366-0.1500244,0.2300415-0.1500244,0.3600464s0.0599976,0.2600098,0.1500244,0.3499756l2.9613037,2.9613037
					c0.3931885,3.7677002,1.5048828,7.321106,3.2059941,10.5213623l-3.2373052,3.2373657
					c-0.2000122,0.1999512-0.2000122,0.5099487,0,0.7099609l11.3800049,11.3800049
					c0.0899658,0.0900269,0.2199707,0.1500244,0.3499756,0.1500244c0.1400146,0,0.2600098-0.0599976,0.3599854-0.1500244
					l3.2355347-3.2354736c3.2034302,1.6989136,6.7582397,2.8164673,10.5279541,3.2089233l0.0065308,0.0065308l2.6500244,2.6500244
					c0.0899658,0.0999756,0.2199707,0.1400146,0.3499756,0.1400146s0.2600098-0.0400391,0.3500366-0.1400146l2.6499634-2.6500244
					l0.0085449-0.0085449c4.6369629-0.4801636,8.9512939-2.0491943,12.6831665-4.4573975
					c0.0028076,0.00177,0.0054932,0.0042114,0.0083008,0.0059814c0.7000122,0.4699707,1.5299683,0.7199707,2.3900146,0.7199707
					c1.1499634,0,2.2399902-0.4499512,3.0599976-1.2699585l2.7199707-2.710022
					c1.4800415-1.4799805,1.6600342-3.7800293,0.5599976-5.460022
					C58.1771622,49.6205139,58.1727066,49.6167908,58.1697159,49.6123352z M53.4301529,42.4250183
					c-0.2000122-0.1900024-0.5100098-0.1900024-0.7099609,0l-0.8099976,0.8099976l-7.6700439-7.6700439
					c1.130146-1.1301384,9.8490524-9.8572407,9.2900391-9.2999878l2.0199585,2.0200195
					c0.1939125,0.1937962,0.5047531,0.2052708,0.710022,0c0.2000122-0.2000122,0.2000122-0.5100098,0-0.710022l-2.0200195-2.0200195
					l4.4091797-4.4091187c1.447937,2.7982178,2.4367676,5.8658447,2.8713989,9.1091919
					c-0.0001831,0.000061-0.0003662-0.0001221-0.0003662-0.0001221c-0.1101685,0.0100708-0.2102051,0.0600586-0.2802124,0.1400757
					l-1.0799561,1.0800171l-1.7800293-1.7800293c-0.1900024-0.1900024-0.5100098-0.1900024-0.710022,0
					c-0.1900024,0.2000122-0.1900024,0.5100098,0,0.710022l1.7800293,1.7700195l-1.3800049,1.3799438
					c-0.1900024,0.2000122-0.1900024,0.5100098,0,0.710022l1.4099731,1.4100342l-0.3899536,0.3899536
					c-0.2000122,0.1900024-0.2000122,0.5100098,0,0.7000122c0.1630135,0.181263,0.481987,0.2180977,0.6999512,0l0.3900146-0.3900146
					l1.0599976,1.0599976c0.0775146,0.0678101,0.1738892,0.1151733,0.2706909,0.1273193
					c-0.5273438,4.090332-1.9230957,7.9066772-4.0232544,11.2501221l-4.8674316-4.8674316l0.8099976-0.8099976
					C53.6201553,42.934967,53.6201553,42.6249695,53.4301529,42.4250183z M61.5901871,36.3650208
					c-0.1000481-0.1000481-1.5000725-1.5000725-1.4000244-1.4000244l-1.0599976-1.0499878l2.460022-2.460022l2.4599609,2.460022
					L61.5901871,36.3650208z M50.9101944,6.1349792l10.6699829,10.6699829l-3.1600342,3.1700439l-1.5999756-1.6000366
					c-0.2000122-0.1900024-0.5200195-0.1900024-0.710022,0c-0.1999512,0.2000122-0.1999512,0.5200195,0,0.710022
					l1.6000366,1.5999756l-4.710022,4.710022c-0.3112755-0.3112755-3.0312958-3.0312939-2.9299927-2.9299927
					c-0.2098694-0.2098713-0.5331841-0.1768379-0.710022,0c-0.1900024,0.1900024-0.1900024,0.5100098,0,0.7000122
					l2.9299927,2.9299927l-4.7099609,4.7099609l-1.6000366-1.5899658c-0.1900024-0.2000122-0.5099487-0.2000122-0.6999512,0
					c-0.2000122,0.1900024-0.2000122,0.5100098,0,0.7000122l1.5999756,1.5999756l-3.3499756,3.3400269L32.8501968,24.184967
					C50.465332,6.5801024,29.9041615,27.1410103,50.9101944,6.1349792z M46.5801773,9.0549622l-4.4199829,4.4200439l-0.75-0.75
					c-0.1900024-0.1900024-0.5100098-0.1900024-0.710022,0c-0.1900024,0.2000122-0.1900024,0.5100098,0,0.7099609l0.75,0.75
					l-9.2999878,9.3000488l-7.7000122-7.710022l2.1099854-2.1099854c0.2000122-0.1900024,0.2000122-0.5100098,0-0.7000122
					c-0.1900024-0.2000122-0.5100098-0.2000122-0.7000122,0l-2.1199951,2.1099854
					c-0.1946964-0.1946964-1.8013134-1.8013134-1.7000122-1.7000122c-3.5979748-3.5453978-2.1201859-2.425622-3.6057129-2.8474121
					c3.4438477-2.2570801,7.4182129-3.7398682,11.6882935-4.2905884c0.0216675,0.0697632,0.0537109,0.1343384,0.1074219,0.1880493
					l3.1700439,3.1599731c0.0899658,0.0999756,0.2199707,0.1500244,0.3499756,0.1500244S34.01017,9.684967,34.1001968,9.5849915
					l3.1699829-3.1599731c0.0700073-0.0700073,0.1099854-0.1600342,0.1300049-0.25
					c0.0001831-0.0008545-0.0002441-0.0016479-0.0002441-0.0016479c3.2716675,0.4260254,6.3638916,1.4216309,9.1826172,2.8791504
					L46.5801773,9.0549622z M17.8701553,15.355011c-1.6967239-0.2092533-2.9618273,1.2203178-2.7099609,2.7299805
					c-1.4051971-0.2073708-2.514904,0.7209969-2.710022,1.9699707l-1.0100098-1.0099487l-0.9000244-4.9100342
					c1.6696091-0.4682608,2.9611664-1.7942238,3.4200439-3.4099731l4.9099731,0.8900146l1.0400391,1.039978
					C18.6266651,12.7562218,17.658926,14.0863504,17.8701553,15.355011z M23.300148,32.3249817L8.8656387,46.759491
					c-1.5314336-2.9614258-2.5383306-6.2300415-2.9235845-9.6864014l0.0081177-0.0081177l1.0299683-1.0199585l0.960022,0.9599609
					c0.2170758,0.1954727,0.5137362,0.1766472,0.7100224,0c0.1900024-0.2000122,0.1900024-0.5100098,0-0.7099609
					l-0.9600224-0.960022l1.309998-1.3200073c0.1900024-0.1900024,0.1900024-0.5100098,0-0.710022l-1.0399785-1.039978
					l1.6300054-1.6300049c0.1999512-0.1900024,0.1999512-0.5100098,0-0.7000122
					c-0.1900024-0.1999512-0.5100098-0.1999512-0.710022,0l-1.6300054,1.6300049l-1.2545166-1.2545166
					c0.5580444-4.2769165,2.0892949-8.2454834,4.3566899-11.6937866c0.1472912,0.7061024,0.1020021,0.8524914,0.277832,1.0283203
					C14.5329752,23.5452442,19.7506199,28.7710514,23.300148,32.3249817z M33.7501602,3.6150208l2.460022,2.4499512
					l-2.460022,2.460022c-0.7140236-0.7140231-1.3450203-1.3450189-2.460022-2.460022L33.7501602,3.6150208z M12.970192,10.5450134
					c-0.3956175,1.270092-1.3919125,2.2266684-2.6100464,2.5999756L9.7701797,9.9549866L12.970192,10.5450134z
					 M5.4801402,31.2049866c0.1097579,0.1097584,2.7815661,2.7815666,2.460022,2.460022
					c-0.1107359,0.110733-2.6201468,2.6200829-2.460022,2.4599609l-2.4599609-2.4599609L5.4801402,31.2049866z
					 M16.6201553,61.7649841L5.9501719,51.0950012c2.4308076-2.4336548-7.1258564,7.1294441,18.0599976-18.0700073
					l10.6699829,10.6799927l-3.3499756,3.3499756l-2.9299927-2.9299927c-0.1900024-0.1900024-0.5100098-0.1900024-0.7000122,0
					c-0.2000122,0.2000122-0.2000122,0.5100098,0,0.710022l2.9299927,2.9299927l-4.710022,4.710022l-1.5999756-1.6000366
					c-0.2000122-0.1900024-0.5100098-0.1900024-0.710022,0c-0.1726589,0.1727905-0.2014732,0.4917412,0,0.710022
					l1.6000366,1.5999756c-0.1051064,0.1048813-5.022047,5.0113754-4.710022,4.7000122l-2.9299927-2.9299927
					c-0.2000122-0.1900024-0.5100098-0.1900024-0.710022,0c-0.1900024,0.2000122-0.1900024,0.5200195,0,0.710022
					l2.9299927,2.9299927L16.6201553,61.7649841z M42.1101456,53.7350159c0.1856117,0.1854973,0.4956894,0.2143326,0.710022,0
					l0.9500122-0.9500122l4.8575439,4.8675537c-3.3474731,2.1101685-7.166687,3.5218506-11.2640381,4.0540161
					c-0.0280151-0.0455322-0.0560913-0.0841675-0.0935059-0.121582l-1.1400146-1.1400146l0.3300171-0.3399658
					c0.1900024-0.2000122,0.1900024-0.5100098,0-0.710022c-0.2000122-0.1900024-0.5100098-0.1900024-0.710022,0
					l-0.3300171,0.3400269l-1.3199463-1.3200073c-0.1800537-0.1900024-0.5200195-0.1900024-0.7000122,0l-1.3099976,1.3200073
					l-0.1100464-0.1100464c-0.1900024-0.1900024-0.5099487-0.1900024-0.6999512,0
					c-0.2000122,0.2000122-0.2000122,0.5200195,0,0.710022l0.0999756,0.0999756l-1.1500244,1.1500244
					c-0.0392456,0.0392456-0.0778198,0.0884399-0.0982056,0.1375732c-3.2680054-0.4263306-6.3569336-1.4211426-9.1735229-2.8757935
					l14.4317627-14.4317627l7.6699829,7.6699829l-0.9500122,0.9500122
					C41.9201431,53.2250061,41.9201431,53.5450134,42.1101456,53.7350159z M33.7501602,64.394989l-2.460022-2.460022
					c0.1003017-0.1003265,2.5600357-2.5605774,2.460022-2.4599609c0.263092,0.2630844,2.5603371,2.560276,2.460022,2.4599609
					L33.7501602,64.394989z M49.4801407,57.0849915c-0.1130295-0.1129913-35.7683334-35.7577515-35.6499634-35.6400146
					c-0.0200195-0.0199585-0.0300293-0.0299683-0.0400391-0.0499878c-1.2157602-1.3059177,0.6900978-3.3196812,2.1200562-1.8900146
					c5.4536114,5.4536114,32.5381393,32.5381889,37.9099731,37.9100342
					C52.5401382,58.355011,50.6201553,58.2250061,49.4801407,57.0849915z M54.550148,56.7350159
					c-31.8033638-31.8105259,3.4116096,3.4250145-38-38.0100098c-1.3297863-1.2807808,0.6530476-3.3472567,2-2
					c7.2717094,7.2715378,32.1940956,32.1940842,38.0100098,38.0100098L54.550148,56.7350159z M57.2401505,53.9949646
					C56.606636,53.3614502,18.7505188,15.5053339,19.26017,16.0149841
					c-1.3111057-1.2673569,0.6069984-3.4027109,2.0800171-1.9299927
					c1.0089874,1.0089884,36.4286766,36.4286766,35.5700073,35.5700073
					C58.0901871,50.8349915,58.2001724,52.684967,57.2401505,53.9949646z"></path>
    </g>
  </g>
</svg>
